:FULLY-SPECIFIED
:FORCE-ALL-JOINTS-BE-3DOF
:DEGREES
2548
root 4.01578 13.8363 -23.9894 -13.7528 83.6458 -15.6674
lfemur -35.7158 5.46475 -14.3831
ltibia 87.3282 -0 0
lfoot -25.6512 27.7679 0.079368
ltoes -42.4948 0 0
rfemur -57.9472 -22.0361 12.914
rtibia 54.0179 -0 0
rfoot -0.676583 5.99175 0.240719
rtoes 3.94725 -0 0
lowerback 17.4404 0.150987 -4.6031
upperback -0.729963 -0.387877 2.96406
thorax -10.609 0.186269 5.9817
lowerneck 5.00632 -14.6792 -15.1811
upperneck -0.00756633 -20.5258 15.0659
head 2.32988 -10.4053 6.22532
lclavicle -1.55052e-014 -1.03368e-014 0
lhumerus -50.1246 -44.6966 113.079
lradius 106.55 -0 0
lwrist 80.1152 0 0
lhand 7.74204 39.9359 0.00950465
lfingers 7.12502 -0 0
lthumb 32.9809 66.9333 0.0068483
rclavicle -1.55052e-014 -1.03368e-014 0
rhumerus 10.2432 -9.21962 -60.3224
rradius 79.6239 -0 0
rwrist 19.0303 0 0
rhand -34.6041 -44.1234 0.712206
rfingers 7.12502 -0 0
rthumb -7.75877 -73.8024 0.679662
2549
root 3.96658 13.8664 -24.1323 -8.81926 81.6985 -10.6742
lfemur -35.1903 3.74002 -15.1368
ltibia 86.6788 -0 0
lfoot -25.1825 28.2367 0.0902114
ltoes -43.219 0 0
rfemur -58.1251 -21.1392 13.6653
rtibia 52.0337 -0 0
rfoot -1.21105 5.22636 0.270801
rtoes 2.67371 -0 0
lowerback 17.64 0.294403 -4.86538
upperback -0.625577 -0.263073 2.9173
thorax -10.6254 0.256091 6.04935
lowerneck 4.99334 -14.6866 -15.1959
upperneck -0.0725101 -20.5336 15.1767
head 2.32795 -10.41 6.25926
lclavicle -1.55052e-014 -1.03368e-014 0
lhumerus -49.0238 -44.8541 112.545
lradius 106.129 -0 0
lwrist 79.5881 0 0
lhand 7.53169 39.8547 0.0116046
lfingers 7.12502 -0 0
lthumb 32.7807 66.8932 0.00852721
rclavicle -1.55052e-014 -1.03368e-014 0
rhumerus 11.1049 -7.3879 -59.9575
rradius 80.4444 -0 0
rwrist 16.5244 0 0
rhand -33.5286 -42.8811 0.810576
rfingers 7.12502 -0 0
rthumb -6.72051 -72.5748 0.773544
2550
root 3.91737 13.8966 -24.2751 -5.67006 79.6233 -7.46283
lfemur -34.6195 1.98515 -15.9353
ltibia 85.9945 -0 0
lfoot -24.713 28.7178 0.0983393
ltoes -43.9685 0 0
rfemur -58.2965 -20.2241 14.4432
rtibia 49.9974 -0 0
rfoot -1.78665 4.42649 0.294211
rtoes 1.32758 -0 0
lowerback 17.8453 0.444331 -5.14364
upperback -0.518675 -0.134746 2.86907
thorax -10.6429 0.328397 6.12373
lowerneck 4.97936 -14.6948 -15.212
upperneck -0.136057 -20.5426 15.2902
head 2.32725 -10.4153 6.29391
lclavicle -1.55052e-014 -1.03368e-014 0
lhumerus -47.875 -45.0067 111.989
lradius 105.69 -0 0
lwrist 79.0445 0 0
lhand 7.31861 39.7739 0.0134968
lfingers 7.12502 -0 0
lthumb 32.5779 66.8538 0.0100637
rclavicle -1.55052e-014 -1.03368e-014 0
rhumerus 12.0148 -5.48324 -59.5575
rradius 81.3121 -0 0
rwrist 13.9488 0 0
rhand -32.4091 -41.5877 0.888203
rfingers 7.12502 -0 0
rthumb -5.6399 -71.2967 0.847626
2551
root 3.86817 13.9267 -24.418 -3.52391 77.4497 -5.25443
lfemur -34.0115 0.225708 -16.7717
ltibia 85.2856 -0 0
lfoot -24.2484 29.206 0.103363
ltoes -44.731 0 0
rfemur -58.4585 -19.3 15.2383
rtibia 47.9457 -0 0
rfoot -2.39506 3.59727 0.309967
rtoes -0.0672443 0 0
lowerback 18.0539 0.599079 -5.43345
upperback -0.410554 -0.00423354 2.81981
thorax -10.6615 0.402355 6.20314
lowerneck 4.96461 -14.7037 -15.2293
upperneck -0.197788 -20.5527 15.4063
head 2.32779 -10.4211 6.32914
lclavicle -1.55052e-014 -1.03368e-014 0
lhumerus -46.6881 -45.1572 111.418
lradius 105.237 -0 0
lwrist 78.4894 0 0
lhand 7.1038 39.6959 0.0150875
lfingers 7.12502 -0 0
lthumb 32.3734 66.8173 0.0113788
rclavicle -1.55052e-014 -1.03368e-014 0
rhumerus 12.9714 -3.5221 -59.1191
rradius 82.2159 -0 0
rwrist 11.3343 0 0
rhand -31.2588 -40.26 0.941508
rfingers 7.12502 -0 0
rthumb -4.52946 -69.9846 0.898493
